<svg xmlns="http://www.w3.org/2000/svg" viewBox="0 0 32 32" fill="none">
  <rect width="32" height="32" rx="6" fill="#6366f1"/>
  <g transform="translate(4, 4)">
    <circle cx="0"  cy="0"  r="2.5" fill="white"/>
    <circle cx="12" cy="0"  r="2.5" fill="white"/>
    <circle cx="24" cy="0"  r="2.5" fill="white"/>
    <circle cx="0"  cy="12" r="2.5" fill="white"/>
    <circle cx="12" cy="12" r="3.5" fill="white" opacity="0.9"/>
    <circle cx="24" cy="12" r="2.5" fill="white"/>
    <circle cx="0"  cy="24" r="2.5" fill="white"/>
    <circle cx="12" cy="24" r="2.5" fill="white"/>
    <circle cx="24" cy="24" r="2.5" fill="white"/>
    <line x1="2.5" y1="0"  x2="9.5"  y2="0"  stroke="white" stroke-width="1.5" opacity="0.7"/>
    <line x1="14.5" y1="0" x2="21.5" y2="0"  stroke="white" stroke-width="1.5" opacity="0.7"/>
    <line x1="2.5" y1="12" x2="8.5"  y2="12" stroke="white" stroke-width="1.5" opacity="0.7"/>
    <line x1="15.5" y1="12" x2="21.5" y2="12" stroke="white" stroke-width="1.5" opacity="0.7"/>
    <line x1="2.5" y1="24" x2="9.5"  y2="24" stroke="white" stroke-width="1.5" opacity="0.7"/>
    <line x1="14.5" y1="24" x2="21.5" y2="24" stroke="white" stroke-width="1.5" opacity="0.7"/>
    <line x1="0" y1="2.5"  x2="0"  y2="9.5"  stroke="white" stroke-width="1.5" opacity="0.7"/>
    <line x1="12" y1="2.5" x2="12" y2="8.5"  stroke="white" stroke-width="1.5" opacity="0.7"/>
    <line x1="24" y1="2.5" x2="24" y2="9.5"  stroke="white" stroke-width="1.5" opacity="0.7"/>
    <line x1="0" y1="14.5" x2="0"  y2="21.5" stroke="white" stroke-width="1.5" opacity="0.7"/>
    <line x1="12" y1="15.5" x2="12" y2="21.5" stroke="white" stroke-width="1.5" opacity="0.7"/>
    <line x1="24" y1="14.5" x2="24" y2="21.5" stroke="white" stroke-width="1.5" opacity="0.7"/>
  </g>
</svg>
